<?xml version="1.0" encoding="UTF-8" standalone="no" ?>
<!DOCTYPE svg PUBLIC "-//W3C//DTD SVG 1.1//EN" "http://www.w3.org/Graphics/SVG/1.1/DTD/svg11.dtd">
<svg xmlns="http://www.w3.org/2000/svg" xmlns:xlink="http://www.w3.org/1999/xlink" version="1.1" width="300" height="100" viewBox="0 0 340 100" xml:space="preserve">
<desc>Created with Fabric.js 5.2.4</desc>
<defs>
</defs>
<g transform="matrix(0 0 0 0 0 0)" id="0c56abb2-0deb-4ea9-a22c-fc8b284bf8ff"  >
</g>
<g transform="matrix(1 0 0 1 150 50)" id="bad58ae3-b8f9-44e6-a7e0-1145e1ae0a38"  >
<rect style="stroke: none; stroke-width: 1; stroke-dasharray: none; stroke-linecap: butt; stroke-dashoffset: 0; stroke-linejoin: miter; stroke-miterlimit: 4; fill: rgb(255,255,255); fill-rule: nonzero; opacity: 1; visibility: hidden;" vector-effect="non-scaling-stroke"  x="-150" y="-50" rx="0" ry="0" width="300" height="100" />
</g>
<g transform="matrix(0.12 0 0 0.11 52.54 48.83)"  >
<g style="" vector-effect="non-scaling-stroke"   >
		<g transform="matrix(1 0 0 1 -37.46 58.91)"  >
<path style="stroke: none; stroke-width: 1; stroke-dasharray: none; stroke-linecap: butt; stroke-dashoffset: 0; stroke-linejoin: miter; stroke-miterlimit: 4; fill: rgb(28,28,28); fill-rule: nonzero; opacity: 1;" vector-effect="non-scaling-stroke"  transform=" translate(-47.74, -197.72)" d="M 0 0 C 2.19025181 30.97510098 3.66413023 61.95858149 4.5 93 C 4.53126984 94.12869523 4.56253967 95.25739045 4.59475708 96.42028856 C 7.33758583 198.11155998 7.33758583 198.11155998 -20.81140137 229.46878052 C -25.56670501 234.43115163 -30.6492366 238.8811799 -36 243.1875 C -36.86096283 243.88153931 -37.72192566 244.57557861 -38.60897827 245.29064941 C -49.12444676 253.62392669 -60.10010141 260.81269843 -72 267 C -71.05545724 268.26983766 -70.10945142 269.53858712 -69.1628418 270.80688477 C -68.37287056 271.86686424 -68.37287056 271.86686424 -67.56694031 272.94825745 C -60.77684293 281.83917159 -52.85850372 289.21476311 -44 296 C -37.76283442 291.20552898 -33.20667678 285.4280661 -28.44984794 279.22582412 C -13.91405858 260.34351097 1.59650809 242.3063942 17.5625 224.625 C 18.25497172 223.85620671 18.94744345 223.08741343 19.66089916 222.29532337 C 55.41007362 182.72740808 88.37527398 154.10447715 143.36287713 151.23317862 C 158.31527353 150.56819494 173.19087489 151.01984852 188.125 151.875 C 189.60184572 151.9573557 189.60184572 151.9573557 191.10852671 152.04137516 C 216.5635092 153.48758679 241.80326299 156.11360622 267 160 C 265.80553739 165.13321562 263.17862178 169.17965267 260.5 173.6875 C 259.92757568 174.65212158 259.35515137 175.61674316 258.76538086 176.6105957 C 244.47651449 200.36824036 228.1017555 222.93089877 210.42382812 244.27197266 C 209.13936123 245.8308644 207.87321063 247.40480439 206.609375 248.98046875 C 201.58690775 255.24048638 196.25663902 261.13946505 190.78125 267 C 188.58932351 269.35016717 186.46347694 271.74437604 184.375 274.1875 C 155.18917344 307.64271605 112.58839044 327.67683144 68.625 331.625 C 30.9218721 334.10546894 -4.55688252 324.86411442 -36.01171875 303.98046875 C -38.63610958 302.2411666 -41.2950731 300.60925308 -44 299 C -44.47376635 299.47653172 -44.94753269 299.95306345 -45.43565559 300.44403553 C -56.97053162 312.04520026 -68.51372392 323.63801858 -80.06620979 335.22164631 C -85.65273269 340.82362993 -91.23641702 346.42838867 -96.81347656 352.03979492 C -101.67514722 356.93139217 -106.54209028 361.81767106 -111.4154042 366.69766968 C -113.99496544 369.28113764 -116.57183186 371.86716897 -119.14239883 374.459589 C -122.01399944 377.35540238 -124.8973101 380.23927798 -127.78173828 383.12231445 C -128.62978531 383.98114731 -129.47783234 384.83998016 -130.35157776 385.72483826 C -136.21375002 391.55643812 -140.77387101 395.42708701 -149.375 395.4375 C -155.0805499 395.27522611 -159.51542701 394.6793883 -164 391 C -168.97429234 385.57845769 -171.14872632 381.23601735 -171.375 373.8125 C -171.44847656 372.18248047 -171.44847656 372.18248047 -171.5234375 370.51953125 C -170.22137388 361.76461093 -163.11440595 355.6956749 -157.07885742 349.73828125 C -156.19055237 348.84953812 -155.30224731 347.96079498 -154.38702393 347.04512024 C -151.96919253 344.62901094 -149.54493701 342.21971829 -147.1174829 339.81330109 C -144.57497295 337.28964634 -142.04105302 334.75739538 -139.50617981 332.22607422 C -134.71348532 327.44267435 -129.91320071 322.66696831 -125.11008865 317.89403152 C -119.63858127 312.45614889 -114.17567092 307.00966405 -108.71343839 301.56246758 C -97.48511221 290.36543186 -86.24612798 279.17915748 -75 268 C -75.61713867 266.90993652 -76.23427734 265.81987305 -76.87011719 264.69677734 C -77.21725769 264.08361664 -77.56439819 263.47045593 -77.92205811 262.8387146 C -79.57514445 260.01893924 -81.42521799 257.33591716 -83.25 254.625 C -98.68240837 230.93321779 -107.12794172 202.20918948 -108 174 C -108.03996094 173.0203125 -108.07992187 172.040625 -108.12109375 171.03125 C -109.03519021 128.44510905 -92.97164107 85.54429878 -63.55566406 54.60986328 C -60.04764689 50.97962706 -56.49786839 47.3913234 -52.9375 43.8125 C -52.18154541 43.05179199 -51.42559082 42.29108398 -50.64672852 41.50732422 C -45.92560771 36.80006943 -41.0658114 32.33224662 -36 28 C -34.88226815 27.02666642 -33.76505669 26.05273484 -32.6484375 25.078125 C -26.71984846 19.94347158 -20.7291814 14.90977512 -14.5625 10.0625 C -14.00804199 9.62647461 -13.45358398 9.19044922 -12.88232422 8.74121094 C -1.66140872 0 -1.66140872 0 0 0 Z" stroke-linecap="round" />
</g>
		<g transform="matrix(1 0 0 1 105.65 -121.72)"  >
<path style="stroke: none; stroke-width: 1; stroke-dasharray: none; stroke-linecap: butt; stroke-dashoffset: 0; stroke-linejoin: miter; stroke-miterlimit: 4; fill: rgb(28,28,28); fill-rule: nonzero; opacity: 1;" vector-effect="non-scaling-stroke"  transform=" translate(118.57, -116.27)" d="M 0 0 C 13.6124633 11.47071416 22.5442616 24.39774827 28.58203125 41.17578125 C 28.92234375 42.11808594 29.26265625 43.06039062 29.61328125 44.03125 C 35.02377042 62.59223367 32.10679729 83.05881901 26.58203125 101.17578125 C 26.16910401 102.55649348 25.75670552 103.9373639 25.34472656 105.31835938 C 13.75661426 143.99024556 -1.1353701 180.6902952 -18.41796875 217.17578125 C -69.56796875 217.17578125 -120.71796875 217.17578125 -173.41796875 217.17578125 C -166.6684646 209.30135974 -166.6684646 209.30135974 -164.21101379 206.86203003 C -163.65176712 206.30429901 -163.09252045 205.74656799 -162.5163269 205.17193604 C -161.63003098 204.29574615 -161.63003098 204.29574615 -160.72583008 203.40185547 C -160.08603714 202.76512909 -159.4462442 202.12840271 -158.7870636 201.47238159 C -157.40991997 200.10234346 -156.03164999 198.73343674 -154.65235329 197.36556625 C -152.46815715 195.19888119 -150.2876274 193.02856703 -148.108078 190.85720825 C -141.91494116 184.68842678 -135.71612383 178.52537659 -129.51293945 172.36669922 C -125.70870472 168.58925508 -121.90936207 164.80694734 -118.1129818 161.02161026 C -116.66879479 159.58362377 -115.22271396 158.14753663 -113.77469826 156.71340561 C -111.75252014 154.71045946 -109.73659222 152.70141362 -107.72192383 150.69091797 C -107.12498718 150.10274292 -106.52805054 149.51456787 -105.9130249 148.90856934 C -100.56773976 143.55062748 -97.82630473 139.12302902 -97.04296875 131.55078125 C -97.15778866 125.40791597 -99.78006493 119.73764793 -104.1796875 115.46484375 C -109.22000409 111.92742075 -114.32954761 110.87810114 -120.41796875 111.17578125 C -130.56509947 113.13306206 -137.11405454 121.07406205 -144.02172852 128.11425781 C -145.36016645 129.45602929 -146.69994037 130.79646922 -148.04093933 132.13568115 C -151.66120357 135.75848473 -155.26278129 139.3993597 -158.86133313 143.04371357 C -162.63204604 146.85577408 -166.42027041 150.65034969 -170.20677185 154.44671631 C -177.36763116 161.6313454 -184.51347955 168.83070631 -191.65365022 176.03589034 C -202.15444769 186.63093505 -212.67786749 197.20347379 -223.20114803 207.77618027 C -224.75096399 209.33334277 -226.30077161 210.89051356 -227.85057068 212.44769287 C -228.60677592 213.20744785 -229.36298116 213.96720283 -230.14210171 214.74998069 C -234.64854235 219.27857995 -239.15066913 223.81141506 -243.64902413 228.34804583 C -246.43712051 231.15943679 -249.22702578 233.96902839 -252.01719856 236.77835846 C -253.3157978 238.08686365 -254.61350825 239.39625157 -255.91028976 240.70655823 C -257.67194155 242.48646721 -259.43655569 244.26338574 -261.20191956 246.03961182 C -261.72135449 246.56605231 -262.24078941 247.09249279 -262.7759648 247.63488603 C -263.97105631 248.83432748 -265.19169283 250.00824072 -266.41796875 251.17578125 C -266.74796875 251.17578125 -267.07796875 251.17578125 -267.41796875 251.17578125 C -267.81552647 227.63663226 -268.11507925 204.09798798 -268.29877567 180.5561552 C -268.38634752 169.62442838 -268.50567185 158.69479015 -268.70043945 147.7644043 C -268.87017058 138.23450604 -268.97962217 128.70612028 -269.01747316 119.17475253 C -269.03959452 114.1294195 -269.09134984 109.08841212 -269.21537971 104.04446983 C -269.33134406 99.28972404 -269.3662694 94.54105409 -269.34079933 89.78502846 C -269.34545291 88.04613733 -269.37897527 86.30703026 -269.44446182 84.56936646 C -269.82745886 73.87649919 -269.82745886 73.87649919 -267.41796875 69.17578125 C -263.23238922 64.72224378 -257.87173266 61.90344618 -252.45584476 59.20041144 C -249.73140222 57.83058027 -247.1406172 56.26173112 -244.53515625 54.6796875 C -242.79158958 53.6924254 -241.04417255 52.71193232 -239.29296875 51.73828125 C -237.84277344 50.92689697 -237.84277344 50.92689697 -236.36328125 50.09912109 C -225.82634204 44.23863111 -215.17938812 38.61230061 -204.41796875 33.17578125 C -203.27392578 32.59570312 -202.12988281 32.015625 -200.95117188 31.41796875 C -164.27296317 12.88929889 -125.90681833 -1.20222135 -86.53613281 -12.89648438 C -84.65746027 -13.455438 -82.78101437 -14.02207379 -80.90917969 -14.60351562 C -52.87533947 -23.24279644 -23.12046662 -17.85163465 0 0 Z" stroke-linecap="round" />
</g>
</g>
</g>
<g transform="matrix(1 0 0 0.58 188.31 48)" style="" id="e269b1f6-8644-4c34-a532-6a41d5ca08f9"  >
		<text xml:space="preserve" font-family="Courier" font-size="53" font-style="normal" font-weight="700" style="stroke: none; stroke-width: 1; stroke-dasharray: none; stroke-linecap: butt; stroke-dashoffset: 0; stroke-linejoin: miter; stroke-miterlimit: 4; fill: rgb(28,28,28); fill-rule: nonzero; opacity: 1; white-space: pre;" ><tspan x="-100.59" y="16.65" >Manthan</tspan></text>
</g>
</svg>